<svg xmlns="http://www.w3.org/2000/svg" xmlns:xlink="http://www.w3.org/1999/xlink" width="500" zoomAndPan="magnify" viewBox="0 0 375 267.749983" height="357" preserveAspectRatio="xMidYMid meet" version="1.0"><defs><clipPath id="bdf8e5622f"><path d="M 0.175781 0 L 374.824219 0 L 374.824219 267.5 L 0.175781 267.5 Z M 0.175781 0 " clip-rule="nonzero"/></clipPath><clipPath id="75b51a5a60"><path d="M 0.175781 0 L 374.824219 0 L 374.824219 206 L 0.175781 206 Z M 0.175781 0 " clip-rule="nonzero"/></clipPath><clipPath id="299a194eca"><path d="M 93 182 L 311 182 L 311 267.5 L 93 267.5 Z M 93 182 " clip-rule="nonzero"/></clipPath></defs><g clip-path="url(#bdf8e5622f)"><path fill="#ffffff" d="M 0.175781 0 L 374.824219 0 L 374.824219 267.5 L 0.175781 267.5 Z M 0.175781 0 " fill-opacity="1" fill-rule="nonzero"/><path fill="#ffffff" d="M 0.175781 0 L 374.824219 0 L 374.824219 267.5 L 0.175781 267.5 Z M 0.175781 0 " fill-opacity="1" fill-rule="nonzero"/></g><g clip-path="url(#75b51a5a60)"><path fill="#000000" d="M 373.597656 77.089844 C 373.363281 76.164062 373.011719 75.277344 372.625 74.410156 L 372.050781 73.121094 L 371.335938 71.925781 C 369.40625 68.777344 366.855469 66.347656 364.234375 64.613281 C 363.585938 64.136719 362.90625 63.796875 362.25 63.390625 L 361.25 62.816406 L 360.238281 62.339844 C 359.5625 62.03125 358.890625 61.710938 358.21875 61.425781 L 356.1875 60.675781 C 350.800781 58.738281 345.417969 57.984375 340.125 57.519531 C 334.816406 57.132812 329.574219 57.140625 324.367188 57.542969 C 329.371094 59.046875 334.296875 60.574219 339.007812 62.445312 C 341.371094 63.359375 343.667969 64.355469 345.875 65.445312 C 346.976562 65.988281 348.03125 66.59375 349.097656 67.144531 L 350.625 68.074219 C 351.132812 68.375 351.632812 68.683594 352.09375 69.027344 L 353.5 70.019531 C 353.945312 70.367188 354.355469 70.734375 354.785156 71.082031 L 355.414062 71.609375 L 355.976562 72.167969 C 356.335938 72.542969 356.757812 72.878906 357.058594 73.269531 C 358.429688 74.753906 359.265625 76.347656 359.648438 77.773438 C 359.988281 79.222656 360.054688 80.484375 359.65625 81.871094 C 359.328125 83.230469 358.585938 84.734375 357.59375 86.261719 C 355.601562 89.347656 352.527344 92.5 349.078125 95.351562 C 345.59375 98.214844 341.804688 100.96875 337.769531 103.488281 C 329.703125 108.542969 321.027344 113.078125 312.140625 117.261719 C 294.320312 125.605469 275.667969 132.707031 256.78125 139.148438 C 237.878906 145.574219 218.679688 151.292969 199.320312 156.445312 C 185.71875 160.039062 172.050781 163.371094 158.332031 166.375 C 153.109375 157.132812 150.183594 145.894531 150.183594 133.515625 L 150.183594 132.566406 C 150.183594 101.320312 171.480469 75.753906 200.355469 75.753906 C 222.125 75.753906 235.851562 85.695312 248.15625 102.738281 L 309.207031 57.289062 C 287.441406 22.726562 252.414062 0 199.878906 0 C 118.945312 0 62.625 61.074219 62.625 133.515625 L 62.625 134.460938 C 62.625 150.339844 65.359375 165.640625 70.433594 179.863281 C 64.398438 180.253906 58.382812 180.476562 52.429688 180.464844 C 47.578125 180.472656 42.785156 180.214844 38.097656 179.773438 C 33.410156 179.34375 28.835938 178.566406 24.652344 177.375 C 20.480469 176.214844 16.707031 174.464844 14.394531 172.25 C 13.226562 171.148438 12.382812 169.925781 11.90625 168.386719 C 11.441406 166.863281 11.335938 164.992188 11.675781 162.945312 C 11.996094 160.890625 12.824219 158.746094 13.785156 156.59375 C 14.746094 154.433594 16.015625 152.320312 17.378906 150.230469 C 20.113281 146.039062 23.386719 142.046875 26.804688 138.097656 C 22.183594 140.539062 17.777344 143.414062 13.605469 146.828125 C 11.542969 148.5625 9.542969 150.429688 7.703125 152.574219 C 5.859375 154.707031 4.152344 157.085938 2.832031 159.910156 C 1.519531 162.71875 0.578125 166.035156 0.671875 169.628906 C 0.726562 173.207031 1.898438 176.898438 3.742188 179.945312 C 5.582031 183.015625 7.996094 185.46875 10.476562 187.476562 C 12.972656 189.503906 15.585938 191.140625 18.21875 192.558594 C 28.828125 198.019531 39.683594 200.570312 50.4375 202.433594 C 61.203125 204.265625 71.945312 205.0625 82.628906 205.367188 C 103.996094 205.925781 125.160156 204.328125 146.0625 201.445312 C 166.96875 198.546875 187.613281 194.273438 207.9375 188.867188 C 228.265625 183.441406 248.308594 176.867188 267.894531 168.929688 C 287.464844 160.972656 306.628906 151.75 324.832031 140.320312 C 333.914062 134.582031 342.796875 128.335938 351.082031 120.949219 C 355.210938 117.25 359.265625 113.320312 362.960938 108.839844 C 364.800781 106.585938 366.570312 104.207031 368.207031 101.628906 C 369.824219 99.039062 371.355469 96.28125 372.492188 93.128906 C 373.613281 89.992188 374.460938 86.511719 374.390625 82.726562 C 374.382812 80.859375 374.117188 78.933594 373.597656 77.089844 " fill-opacity="1" fill-rule="nonzero"/></g><g clip-path="url(#299a194eca)"><path fill="#000000" d="M 272.195312 183.125 C 252.609375 191.0625 232.566406 197.636719 212.238281 203.0625 C 191.914062 208.46875 171.269531 212.742188 150.363281 215.640625 C 131.449219 218.25 112.320312 219.800781 93.019531 219.660156 C 117.066406 248.753906 153.667969 267.5 196.566406 267.5 C 252.886719 267.5 286.964844 243.828125 310.628906 208.792969 L 274.117188 182.332031 C 273.476562 182.597656 272.835938 182.867188 272.195312 183.125 " fill-opacity="1" fill-rule="nonzero"/></g><path fill="#233dff" d="M 226.238281 136.683594 C 226.238281 137.496094 226.195312 138.304688 226.117188 139.09375 C 216.039062 142.234375 205.878906 145.144531 195.660156 147.863281 C 191.207031 149.046875 186.738281 150.1875 182.261719 151.296875 C 179.21875 147.21875 177.414062 142.160156 177.414062 136.683594 C 177.414062 123.199219 188.34375 112.269531 201.824219 112.269531 C 215.308594 112.269531 226.238281 123.199219 226.238281 136.683594 " fill-opacity="1" fill-rule="nonzero"/></svg>